<svg width="320" height="92" version="1.1" viewBox="0 0 84.666664 24.341668" xmlns="http://www.w3.org/2000/svg"><defs><filter id="a" x="-.0881" y="-.306" width="1.18" height="1.61" color-interpolation-filters="sRGB"><feGaussianBlur stdDeviation="3.1090913"/></filter></defs><g transform="translate(0 -273)"><g transform="translate(-.0199 .0064)" filter="url(#a)"><path d="m1.27e-6 285c0.275-6.11 5.04-11.9 11.3-12.5 11.9-2.14 23.8 2.41 35.7 0.292h37.7c-1.06 7.91 1.88 16.2-1.11 23.9-2.04 1.06-4.63 0.238-6.92 0.479h-76.6v-12.2z" fill="#a0ccee"/><path d="m0.00534 285c3.59-8.15 12.3-13.3 21.1-13.4 15.8-1.15 31.7 5.37 47.3 1.26 3.78-2.27 8.09-1.42 11 1.74 4.73 3.88 6.23 11.2 2.87 16.4-4.21 7.5-14.8 10.4-22.2 6.07-5.89-2.01-12.2-0.476-18.2-0.204-10.8 0.931-22.1 2.52-32.7-1.01-4.6-1.83-8.55-5.84-9.21-10.9zm73.8 11.4c4.81-0.794-1.79-4.26-1.77-1.12 0.44 0.585 1.17 0.756 1.77 1.12zm-43.2-1.29c-0.714-6.09-3.99 3.64 0 0zm47.8-1.82c-2.03-0.0931 1.49 1.25 0 0zm-30-0.597c2.63-2.11-1.76-0.49 0 0zm-6.24-1.23c-2.66-3.3-0.388 4.01 0 0zm-10.6-0.359c-1.75-1.52 0.676 2.07 0 0zm4.1 0.136c-0.944-2.49-0.483 2.38 0 0zm12 0.132c-2.86 0.38 1.92 2.72 0 0zm-5.81-0.981c3.36-2.35-3.1-1.03-0.706-0.042zm-4.51-0.871c0.674-2.49-1.25 1.54 0 0zm8.47-0.265c2.21-3.57 0.604-9.56-4.23-9.49-4.49-0.636-9.21 0.442-13 2.99-0.274 4.74 7.13 2.35 10.2 2.64 2.74 0.0184 5.88 1.12 6.96 3.86zm28.5-0.626c6.02-0.377 5.37-8.79-0.134-9.63-4.14-2.19-9.23 3.13-7.66 6.48 2.34 1.57 5.19 2.17 7.79 3.15zm5.36-5.11c0.3-2.45 1.25 2.1 0 0zm-4.15-2.07c1.86-3.83 1.32 3.8 0 0zm-1.31-3.86c-0.244-2.64 0.881 1.11 0 0zm-1.65-0.423c-0.617-1.84 1.38 0.599 0 0zm-20.9 8.9c-2.37 1.82 3.8 7 1.27 2.52-0.396-0.851-0.826-1.69-1.27-2.52zm-19.3 1.53c3.46 0.442-0.968-2.22 0 0zm23.2-0.986c2.66-1.71 0.846-4.41-1.29-1.78-1.99 1.39-0.593 2.68 1.29 1.78zm-46.8 0.112c0.236-2.52-1.32 0.518 0 0zm-2.1-0.112c-0.123-1.65-0.793 1.33 0 0zm10.6-1.16c3.95 1.22 0.973-2.73 0 0zm-9.43-0.564c3.81-0.955 1.39-5.58-1.75-3.25-1.8 1.07 0.593 2.98 1.75 3.25zm10.5-2.25c-0.496-5.12-2.88 3.59 0 0zm-3.99-0.784c0.389-2.02-1.03 1.23 0 0zm7.67-0.681c-1.66-1.55 0.483 2.16 0 0zm-11.4-0.113c0.819-1.84-1.09 0.887 0 0zm-7.67-0.265c-0.123-1.65-0.793 1.33 0 0zm9 0c-0.123-1.65-0.793 1.33 0 0zm52.8-0.425c-0.166-4.59-5.52 1.49-1.58 1.24 0.609-0.298 1.08-0.79 1.58-1.24zm5.31-0.633c-1.33-1.72 0.178 1.97 0 0zm-54.4-1.03c-1.84-1.47 0.696 2.29 0 0zm65.9-1.02c-1.13-2.51-1.38 1.56-0.245 0.875zm-23.9 0.179c-0.923-4.01-1.9 3.27 0 0zm21-2.11c-0.123-1.65-0.794 1.33 0 0zm-7.54-1.77c-1.92-3.39-3.85 3.85-0.609 0.585 0.216-0.182 0.407-0.389 0.609-0.585z" fill="#5fa4ed"/><path d="m0.0134 285c-0.305-4.76 1.01-11 6.24-12.5 7.71-1.41 14.9 3.66 19.6 9.33 2.77 3.35 4.65 8.93 1.14 12.4-5.75 5.66-14.9 4.9-21.8 2.01-4-1.47-7.32-5.89-5.58-10.2l0.19-0.549zm9.1 2.14c-2.22-3.39-1.52 3.82 0 0zm8.35-1.69c4.62-0.0899 3.58-6.94-1.01-4.84-2.36 0.97-0.191 3.83 1.01 4.84zm-9.34-0.461c4.91-1.4 1.22-6.96-2.56-3.9-1.62 1.7 1.04 3.57 2.56 3.9zm0.782-2.03c-1.76-1.52 1.84 0.567 0 0zm-3.88 1.5c2.12-1.6-1.4-0.99 0 0zm5.82-3.44c0.819-1.84-1.09 0.887 0 0zm1.36-0.132c-0.322-1.67-0.631 1.57 0 0zm-8.83-0.347c-1.34-1.55 0.353 1.81 0 0zm17.2-0.733c-2.15-0.225 1.61 1.27 0 0zm-4.84-0.732c2.73-3.08-2.86 0.897 0 0zm-4.32-5.6c-0.321-1.67-0.631 1.57 0 0zm36.6 22.8c-1.83-3.57-4.48-10.9 1.37-12 5.71-0.754 11.1 1.92 16.5 3.33 5.05 0.315 9.1-3.41 13.7-4.88 3.39-2.38 8.39-0.265 5.94 4.18-1.38 3.75-4.25 7.4-8.56 7.56-8 0.873-15.3-5.36-23.3-3.17-2.49 0.758-4.35 2.78-5.62 4.97zm-16.4-3.87c0.199-2.83 1.79 1.88 0.257 0.375l-0.13-0.189zm7.09-2.35c-1.76-0.855-8.65-1.88-5.91-4.21 2.59-0.356 9.88-0.581 8.33 3.13-0.743 0.494-1.6 0.767-2.42 1.08zm-10.1-0.518c-2.29-1.87 1.82 0.369 0 0zm47.1-8.15c-0.232-4.18 2.59 2.2 0 0zm-3.42-1.3c-5.69 2.97 1.33-4.21 0 0zm-4.03-1.75c-1.26-6.63 3.52 3.24 0 0zm8.72-0.0835c-2.64-3.92 5.76-2.93 2.16-0.213-0.696 0.225-1.43 0.212-2.16 0.213zm-2.78-0.379c-1.21-1.9 1.22 0.415 0 0zm-1.5-0.71c-0.617-1.84 1.38 0.599 0 0zm-2.42-0.789c-1.08-5.39 7.31-1.17 2.7 0.896-0.969-0.0399-1.83-0.527-2.7-0.896zm-5.6-1.15c2.91 0.414-2.48 2.92 0 0zm-2.05-1.25c1.6-5.5 2.9 4.3 0 0z" fill="#a5b71e"/><path d="m1.27e-6 297c-3.37-4.15-5.46-10.8-1.64-15.3 5.59-6.17 15.1-7.41 22.7-4.79 5.05 1.9 6.36 8.27 3.29 12.4-1.68 4.32-5.87 6.82-10.3 7.36-4.65 0.84-9.39 0.459-14.1 0.356zm11.7-2.21c-1.27-5.17-8.36 0.127-3.8 2.67 1.74 0.248 2.78-1.58 3.8-2.67zm1.26-0.331c4.02-3.31-2.14-1.84 0 0zm-11.5-0.59c-1.09 1.1 1.68-0.244 0 0zm5.02-0.803c0.133-3.52-2.24 1.9-0.393 0.511zm-5.18-0.856c2.12-1.6-1.4-0.99 0 0zm7.79-4.73c-2.22-3.39-1.52 3.82 0 0zm9.08-1.73c4.98-1.12 2.85-6.95-1.82-4.33-2.65 1.36 0.121 3.89 1.82 4.33zm-12.6-0.156c-0.936-0.866 0.457 1.58 0 0zm2.57-0.265c4.29-1.02 3.2-6.69-1.37-4.77-3.74 1.59-1.23 4.01 1.37 4.77zm0.782-2.03c-1.76-1.52 1.84 0.567 0 0zm-3.88 1.5c2.12-1.6-1.4-0.99 0 0zm-3.44-1.32c-0.936-0.866 0.457 1.58 0 0zm9.26-2.12c0.819-1.84-1.09 0.887 0 0zm1.36-0.132c-0.322-1.67-0.631 1.57 0 0zm-8.83-0.347c-1.34-1.55 0.353 1.81 0 0zm17.2-0.733c-2.15-0.225 1.61 1.27 0 0zm-4.84-0.732c2.73-3.08-2.86 0.897 0 0zm-3.34-0.903c-1.85 1.06 2.44 1.45 0 0zm-0.746-0.825c2.16-1.99-2.38-0.0266 0 0zm-0.225-3.87c-0.321-1.67-0.631 1.57 0 0zm18.2 23.4c-1.54-2.61 2.54 0.0707 0 0zm5.03-5e-3c3.1-0.181-1.7 2.75 0 0zm13.4-0.648c-1.76-3.69-3.37-10.1 1.58-12 5.21-1.78 10.7 0.571 15.3 2.98 2.43 0.757 4.84 4.58 0.403 3.75-5.96 0.25-14.1-1.25-17.3 5.29zm6.18-6.39c-2.65-2.59-0.168 3.46 0 0zm2.14 0.0309c0.531-1.78-0.976 0.957 0 0zm12.4-0.822c-0.512-2.09-0.795 1.63 0 0zm8.73 7.83c1.44-0.934-0.676 1.63 0 0zm1.47 0.0289c2.06-4.16 4.37 3.51 0.113 0.071zm-46.5-0.558c2.93-0.183-1.6 2.84 0 0zm-1.64-0.71c-0.617-1.84 1.38 0.599 0 0zm53.4-2.42c-4.72 0.888-8.15-6.28-2.32-7.3 4.85-1.77 4.11 5.04 2.32 7.3zm-7.01 1.01c-0.819-1.84 1.09 0.887 0 0zm-45.7-1.88c0.199-2.83 1.79 1.88 0.257 0.375l-0.13-0.189zm7.09-2.35c-2.3 0.234-8.14-3.05-2.74-3.32 2.04-0.65 8.4 0.795 3.95 2.81l-0.558 0.251zm-10.1-0.517c-2.29-1.87 1.82 0.369 0 0zm54.6-6.75c-3.78-1.72-0.409-10.4 2.36-5.64 0.148 2.15-1.28 3.94-2.36 5.64zm0.95-7.43c2.02-2.33-1.99-0.993 0 0zm-7.89 5.95c0.634-3.44 1.65 2.78 0 0zm-3.94-1.28c-1.1 1.94-4.76 1.34-1.97-0.58 0.621-0.891 2.24-0.709 1.97 0.58zm-3.39-1.72c0.944-4.41 1.98 0.923 0 0zm8.12-0.0392c-2.64-3.92 5.76-2.93 2.16-0.213-0.696 0.225-1.43 0.212-2.16 0.213zm-2.78-0.379c-1.21-1.9 1.22 0.415 0 0zm-3.31-1.84c-0.837-4.74 6.23-0.0523 1.96 0.802-0.707-0.121-1.34-0.477-1.96-0.802zm-6.22-0.801c2.91 0.414-2.48 2.92 0 0zm5.42 0.165c-1.62-1.88 2.14 0.0465 0 0zm-7.47-1.42c1.6-5.5 2.9 4.3 0 0z" fill="#2063ce"/><path d="m0.152 296c-4.49-4.27-4.48-12-0.0579-16.4 4.44-5.22 12.1-9.05 18.9-6.4 4.15 2.27 4.77 7.65 4.01 11.9 3.62 4.06 0.368 10.7-5.04 10.4-5.86 1.16-11.9 0.402-17.8 0.515zm11.6-2.13c-1.27-5.17-8.36 0.127-3.8 2.67 1.74 0.248 2.78-1.58 3.8-2.67zm1.26-0.331c4.02-3.31-2.14-1.84 0 0zm-11.5-0.59c-1.09 1.1 1.68-0.244 0 0zm5.02-0.803c0.133-3.52-2.24 1.9-0.393 0.511zm-5.18-0.856c2.12-1.6-1.4-0.99 0 0zm7.79-4.73c-2.22-3.39-1.52 3.82 0 0zm-3.55-1.88c-0.936-0.866 0.457 1.58 0 0zm2.57-0.265c3.77-0.765 3.67-6.3-0.817-4.84-3.99 0.744-2.1 4.3 0.817 4.84zm0.727-2.13c-0.0898-1.58 0.936 1.37 0 0zm-3.83 1.61c-0.037-2.21-0.806 1.79 0 0zm-3.44-1.32c-0.936-0.866 0.457 1.58 0 0zm9.26-2.12c0.819-1.84-1.09 0.887 0 0zm1.36-0.132c-0.322-1.67-0.631 1.57 0 0zm-8.81-0.515c-2.04 0.151 1.98 1.57 0 0zm17.2-0.565c-2.15-0.225 1.61 1.27 0 0zm-4.84-0.732c2.73-3.08-2.86 0.897 0 0zm-3.34-0.903c-1.85 1.06 2.44 1.45 0 0zm-0.746-0.825c2.16-1.99-2.38-0.0266 0 0zm18 19.5c-1.54-2.61 2.54 0.0707 0 0zm18.4-0.653c-3.8-3.21 3.13-4.38 1.43-0.658l-0.688 0.425zm29.5 0.653c1.44-0.934-0.676 1.63 0 0zm1.47 0.0289c1.16-4.11 4.73 2.89 0.704 0.445-0.245-0.13-0.47-0.295-0.704-0.445zm-44.6-0.21c-0.617-1.84 1.38 0.599 0 0zm-1.8-0.348c2.93-0.183-1.6 2.84 0 0zm-1.64-0.71c-0.617-1.84 1.38 0.599 0 0zm53.4-2.42c-4.72 0.833-7.73-6.22-2.13-7.27 4.75-1.65 4.33 5.08 2.13 7.27zm-7.01 1.01c-0.819-1.84 1.09 0.887 0 0zm-45.6-1.81c1.27-2.55 0.808 2.66 0 0zm34.5-0.74c-3.1 5e-3 -9.86 1.86-10.1-2.2 3.52-3.79 11-3.58 13.7 1.14 1.06 2.25-2.61 0.797-3.56 1.05zm-11.9-1.84c-2.65-2.59-0.168 3.46 0 0zm2.14 0.0309c0.531-1.78-0.976 0.957 0 0zm12.4-0.822c-0.512-2.09-0.795 1.63 0 0zm-30.1 0.955c0.0047-3.19 3.83 4.18 0.153 0.144zm44.6-7.58c-3.38-2.07 3.15-7.06 1.57-2.04-0.415 0.755-0.986 1.41-1.57 2.04zm0.791-7.11c2.02-2.33-1.99-0.993 0 0zm-7.89 5.96c-0.819-1.84 1.09 0.886 0 0zm0.854-0.314c-0.987-2.38 1.6 1.35 0 0zm-5.31-1.42c-2.3-1.68 3.16 1.06 0 0zm-2.87-1.29c-1.17-4.8 2.95 0.517 0 0zm8.22 6e-3c0.414-4 3.63 2.52 0 0zm-2.88-0.418c-1.21-1.9 1.22 0.415 0 0zm-25.8-0.0972c0.659-3.58 1.77 2.79 0 0zm22.5-1.74c-1.39-4.84 5.65 0.634 0.875 0.298l-0.441-0.138zm-0.794-0.645c-1.62-1.88 2.14 0.0465 0 0zm11.1-1.64c-1.35-2.53 2.33 0.87 0 0zm-5.29-0.482c-0.495-1.87 1.18 0.971 0 0z" fill="#609931"/><path d="m0.104 296c-2.93-5.42-0.464-11.7 1.78-16.9 1.75-4.41 5.92-2.24 4.46 1.91-0.919 5.75 6.81 1.45 9.84 4.08 6.39 2.28 1.54 9.85-3.74 9.03-3.64 1.31-8.06-3.68-10.7 0.17-0.554 0.572-1.11 1.14-1.66 1.72zm13.1 0.343c-0.582-1.01-0.171 1.05 0 0zm-10.9-1.36c3.07-3.69-5.25-2.06-0.112-0.0558zm21.3-4.99c-1.34-2.52-0.577 2.68 0 0zm-19.1-2.02c2.31-3.08-2.98 0.538 0 0zm79.4 8.55c-2.32-0.559 1.36-1.07 0 0zm-68.7-0.199c-0.0708-2.07 1.25 1.12 0 0zm69.2-3.68c-3-2.6 2.76-2.25 0 0zm-77.7 0.159c1.44-0.934-0.676 1.63 0 0zm74.9-0.258c-4.14 2.81 0.459-3.85 0 0zm-3.44-0.8c1.44-0.934-0.676 1.63 0 0zm-15.9-1.12c-4.56-2.2 2.96-0.862 4.38 0.0931 3.13 1.41-4.61-0.175-4.38-0.0931zm9.26 0.0788c2.4-3.21 1.92 4.07 0 0zm8.2-1.58c2.79-1.58-6e-3 5.03 0.077 0.578-0.0257-0.193-0.0513-0.386-0.077-0.578zm-9.97-0.387c0.781-2.39 0.651 2.66 0 0zm-17-0.147c2.36-3.61 0.909 3.92 0 0zm-3.07-0.398c0.77-5.05 3.53 0.987 0 0zm18.3-0.686c1.08-2.06-0.0413 2.1 0 0zm15-0.0712c-4.84-0.0765 1.92-2.6 0.176-0.126zm-82.8 0.0712c-1.21-1.9 1.22 0.415 0 0zm-0.132-0.942c1.41-0.53-0.961 1.38 0 0zm9.39-0.91c0.389-2.14 0.291 1.64 0 0zm-9.26-0.794c-1.21-1.9 1.22 0.415 0 0zm19.4-1.16c0.423-5.41 3.64 3.85 0 0zm64.4-1.68c-2.96-3.12 4.12-0.0601 0 0zm-70.9-2.96c-1.24-5.24 6.36-6.86 7.5-1.66 2.16 5.04-5.5 3.62-7.5 1.66zm5.84-1.52c-0.251-1.39-0.611 1.04 0 0zm-1.92-0.748c0.596-3-1.57 1.15 0 0zm2.11 3.16c1.41-0.53-0.961 1.38 0 0zm65.3-0.822c-2.92-2.62 3.47-1.17 0 0zm-35.9-1.77c0.659-3.58 1.77 2.79 0 0zm35.5-3.46c-3.75-1.52 0.544-2.52 0.294-0.117zm-9.01-0.282c-0.058-2.16 0.746 1.68 0 0zm7.03-0.626c-1.98 0.35 0.457-1.12 0 0zm-10.3-0.3c1.16-0.289-0.848 1.23 0 0z" fill="#2d4911"/></g></g></svg>
