<?xml version="1.0" encoding="UTF-8" standalone="no"?>
<!-- Created with Inkscape (http://www.inkscape.org/) -->

<svg
   width="1920.0001mm"
   height="215.07782mm"
   viewBox="0 0 1920 215.07782"
   version="1.1"
   id="svg5"
   xml:space="preserve"
   inkscape:version="1.2.1 (9c6d41e, 2022-07-14)"
   sodipodi:docname="ibis-outage-web.svg"
   inkscape:export-filename="ibis-avatar.png"
   inkscape:export-xdpi="191.99998"
   inkscape:export-ydpi="191.99998"
   xmlns:inkscape="http://www.inkscape.org/namespaces/inkscape"
   xmlns:sodipodi="http://sodipodi.sourceforge.net/DTD/sodipodi-0.dtd"
   xmlns="http://www.w3.org/2000/svg"
   xmlns:svg="http://www.w3.org/2000/svg"><sodipodi:namedview
     id="namedview7"
     pagecolor="#505050"
     bordercolor="#ffffff"
     borderopacity="1"
     inkscape:showpageshadow="0"
     inkscape:pageopacity="0"
     inkscape:pagecheckerboard="1"
     inkscape:deskcolor="#505050"
     inkscape:document-units="mm"
     showgrid="false"
     inkscape:zoom="0.20509843"
     inkscape:cx="3530.0124"
     inkscape:cy="1333.506"
     inkscape:window-width="1680"
     inkscape:window-height="997"
     inkscape:window-x="0"
     inkscape:window-y="25"
     inkscape:window-maximized="0"
     inkscape:current-layer="layer1"><inkscape:grid
       type="xygrid"
       id="grid499"
       originx="960.89716"
       originy="126.39768" /></sodipodi:namedview><defs
     id="defs2"><clipPath
       clipPathUnits="userSpaceOnUse"
       id="clipPath35975"><path
         style="fill:none;stroke:#000000;stroke-width:0.264583px;stroke-linecap:butt;stroke-linejoin:miter;stroke-opacity:1"
         d="m -13.142979,-126.79935 c 1.637026,1.6838 6.1739262,2.15152 6.1739262,2.15152 0.6080379,2.38538 3.8353175,3.08697 3.8353175,3.08697 C -2.7595579,-120.53188 0,-118.89485 0,-118.89485 c 0,0 -1.5434815,1.35639 1.6370259,3.695 3.1805072,2.33861 6.5481035,1.26285 6.5481035,1.26285 5.0513936,1.73057 10.5237376,1.96443 12.5349406,0.79513 2.011203,-1.16931 2.478925,-4.49016 2.478925,-4.49016 1.917659,0.0935 7.530319,3.13373 10.476965,3.88209 2.946646,0.74838 8.652852,0.1404 11.085005,0.0468 2.432153,-0.0935 4.30304,-2.15152 4.30304,-2.15152 2.572467,0 5.519113,0.98222 7.670634,2.89988 2.15152,1.91765 4.162724,9.30766 5.144939,9.02702 0.982215,-0.28063 0.23386,-7.10937 -2.853103,-10.99146 -3.086962,-3.88209 -10.430192,-5.7062 -10.430192,-5.7062 -1.028989,-2.33861 -3.928864,-3.55468 -7.156143,-3.22728 -3.227279,0.32741 -4.162722,4.91108 -4.162722,4.91108 0,0 -1.590254,0.32741 -4.209497,0.32741 -2.61924,0 -6.735191,-3.41437 -8.138356,-4.58368 -1.403165,-1.1693 -3.320824,-1.35639 -3.320824,-1.35639 0,0 -1.216076,-2.71279 -7.156141,-5.23848 -5.9400654,-2.5257 -13.1897515,-0.88867 -13.1897515,-0.88867 0,0 -4.2094951,-0.65481 -6.9222807,-0.23386 -2.7127856,0.42094 -3.9756342,1.02898 -3.9756342,1.02898 0,0 -6.1271556,0.28064 -6.1739256,1.63703 0,0 -0.187089,1.21606 2.666013,1.44993 z"
         id="path35977" /></clipPath><mask
       maskUnits="userSpaceOnUse"
       id="mask6735"><rect
         style="fill:#ffffff;fill-opacity:1;stroke:none;stroke-width:1.05833;stroke-linecap:round;stroke-linejoin:round;stroke-dasharray:none;stroke-opacity:1"
         id="rect6737"
         width="473.70853"
         height="301.58691"
         x="-60.809013"
         y="-73.700546"
         ry="5.7390208" /></mask></defs><g
     inkscape:label="Layer 1"
     inkscape:groupmode="layer"
     id="layer1"
     transform="translate(779.22955,54.833817)"><g
       id="g6459"
       transform="matrix(0.77936407,0,0,0.77936407,39.884457,-17.333978)"
       mask="url(#mask6735)"
       style="stroke-width:1.2831"><g
         id="g6671"
         style="stroke-width:1.2831"><circle
           style="fill:#ffff00;fill-opacity:1;stroke:none;stroke-width:1.35794;stroke-linecap:round;stroke-linejoin:round;stroke-dasharray:none;stroke-opacity:1"
           id="path6442"
           cx="180.77045"
           cy="138.52011"
           r="149.47084" /></g></g><path
       style="fill:none;stroke:#999999;stroke-width:1.5875;stroke-linecap:butt;stroke-linejoin:miter;stroke-dasharray:none;stroke-opacity:1"
       d="m 264.59609,141.20769 c 6.90526,4.29582 33.37714,10.60166 39.02553,3.06941 3.1425,-6.86966 -31.49814,-6.65043 -28.79412,1.1693 2.70402,7.81972 48.25567,5.88135 48.37996,-2.33862 0.12428,-8.21996 -33.21911,-8.48924 -32.08279,-1.38854 1.86714,16.30897 88.06921,13.99437 113.64174,5.70035 25.57253,-8.29402 159.02538,-24.55538 204.62825,-9.93908 45.60287,14.6163 180.07285,28.0633 281.80231,4.67722 101.72929,-23.38609 266.60113,4.67721 266.60113,4.67721"
       id="path3029"
       sodipodi:nodetypes="cczcczssc" /><path
       style="fill:#999999;fill-opacity:1;stroke:#000000;stroke-width:1.05833;stroke-linecap:butt;stroke-linejoin:miter;stroke-dasharray:none;stroke-opacity:1"
       d="m 260.26913,134.16657 c 8.97445,4.53871 11.53989,15.65569 -4.35346,13.84936"
       id="path3376" /><g
       id="g2886"
       style="stroke:#000000;stroke-width:2.11667;stroke-linecap:square;stroke-dasharray:none"
       transform="translate(-42.333335,-26.458334)"><path
         style="fill:none;stroke:#000000;stroke-width:2.11667;stroke-linecap:square;stroke-linejoin:miter;stroke-dasharray:none;stroke-opacity:1"
         d="m 280.14556,92.616353 -0.0998,-2.294822 3.49212,0.897974 -0.89797,-4.290321 4.09077,0.997749"
         id="path2876" /><path
         style="fill:none;stroke:#000000;stroke-width:2.11667;stroke-linecap:square;stroke-linejoin:miter;stroke-dasharray:none;stroke-opacity:1"
         d="m 277.35187,111.17448 -1.09753,5.1883 4.68942,-2.09527 -1.29707,6.88446 6.28582,-3.29257"
         id="path2878" /><path
         style="fill:none;stroke:#000000;stroke-width:2.11667;stroke-linecap:square;stroke-linejoin:miter;stroke-dasharray:none;stroke-opacity:1"
         d="m 280.74421,103.99069 0.69843,2.49437 3.29257,-2.49437 1.49662,4.29032"
         id="path2880" /><path
         style="fill:none;stroke:#000000;stroke-width:2.11667;stroke-linecap:square;stroke-linejoin:miter;stroke-dasharray:none;stroke-opacity:1"
         d="m 271.6647,83.836162 0.3991,4.489871"
         id="path2882" /><path
         style="fill:none;stroke:#000000;stroke-width:2.11667;stroke-linecap:square;stroke-linejoin:miter;stroke-dasharray:none;stroke-opacity:1"
         d="m 272.16357,89.423557 0.0998,1.197298"
         id="path2884" /></g><ellipse
       style="display:inline;opacity:0.0995935;fill:#000000;fill-opacity:1;stroke:none;stroke-width:2.11666;stroke-linecap:round;stroke-linejoin:round;stroke-dasharray:none;stroke-opacity:1"
       id="path36645-8"
       cx="190.76453"
       cy="142.89238"
       rx="28.241655"
       ry="4.8308096" /><path
       style="fill:none;stroke:#000000;stroke-width:1.05833;stroke-linecap:round;stroke-linejoin:miter;stroke-dasharray:none;stroke-opacity:1"
       d="m 193.41195,89.159859 v 0 l -1.02284,1.804127"
       id="path440"
       sodipodi:nodetypes="ccc" /><path
       style="fill:none;stroke:#999999;stroke-width:2.11667;stroke-linecap:butt;stroke-linejoin:miter;stroke-dasharray:none;stroke-opacity:1"
       d="m 230.06362,74.313835 c 0,0 -1.55214,-2.398747 -14.11031,0.42331 -17.40325,2.88369 9.91349,48.808975 -26.10405,51.502585 -16.36795,0.98772 -29.20833,0.42331 -39.22664,5.92633 -10.01831,5.50302 1.69324,9.03059 4.37419,7.19625 2.68096,-1.83434 3.52758,-3.52757 1.69324,-6.06743 -1.83434,-2.53985 -9.595,-10.30052 -20.31883,-5.64412 0,0 -25.25744,21.30656 -79.15877,23.84641 -53.9013504,2.53986 -63.0113856,-14.9336 -101.109198,-19.16669 -38.097815,-4.23309 -223.922892,17.54164 -272.979042,11.5964 -25.71033,-3.1159 -47.93225,-13.47538 -48.33617,0.33554 -0.40392,13.81092 47.69105,9.72882 43.71413,-11.10588 -3.97692,-20.8347 -261.85654,29.77507 -498.05486,-14.23637"
       id="path602"
       sodipodi:nodetypes="cccssscssszzc" /><g
       id="g5940"
       transform="matrix(0.67968534,0,0,0.6815829,37.527286,-4.1984891)"
       style="stroke-width:1.46922"><path
         id="path366"
         style="fill:#04061f;fill-opacity:1;stroke:#04061f;stroke-width:1.55492;stroke-linecap:round;stroke-linejoin:round;stroke-dasharray:none;stroke-opacity:1"
         d="m 243.38575,80.709647 c -6.5394,0 -11.84074,5.205372 -11.84074,11.626452 0,2.676608 0.92195,5.14149 2.46996,7.106622 -2.13688,9.696499 -5.36661,16.514099 -8.95945,21.343039 l 9.54697,6.60369 c 2.84229,-6.54323 4.58876,-13.92109 5.63576,-23.84295 5.49307,-1.54535 10.82114,-3.873095 13.39272,-7.1281 17.6028,-1.482702 16.94746,25.72072 16.94746,25.72072 4.3821,2.23996 5.89497,-32.09556 -15.35193,-29.803021 0,-6.42108 -5.30134,-11.626452 -11.84075,-11.626452 z" /><path
         id="path2123"
         style="fill:#fff9d9;fill-opacity:1;stroke:#04061f;stroke-width:1.55443;stroke-linecap:round;stroke-linejoin:round;stroke-dasharray:none;stroke-opacity:1"
         d="m 234.84992,108.08371 c -0.3604,-0.0394 -1.24303,1.1316 -2.9783,4.39385 -2.19945,4.1349 -3.37974,4.81485 -3.97909,3.90082 -3.87368,6.93073 -8.50127,10.86723 -12.74887,13.18399 -1.94816,0.3618 -3.81833,1.15883 -5.57751,2.32929 -0.002,9.4e-4 -0.005,0.002 -0.007,0.002 l 0.003,9.3e-4 c -8.17499,5.44295 -13.94655,18.9668 -13.94655,34.53932 0,20.48417 14.1304,36.69324 22.2932,37.08992 8.1628,0.39668 21.13577,-18.31147 23.76284,-36.76268 -0.0333,-12.26569 -1.62914,-24.25297 -12.32333,-29.7883 4.60316,-6.92465 7.53041,-13.81762 9.37488,-23.12693 -0.61649,0.42281 -1.55143,1.7312 -2.93088,4.36248 -6.6961,12.77269 -2.93979,-0.65496 -2.93979,-0.65496 0,0 2.99461,-9.36118 1.99821,-9.47019 z"
         sodipodi:nodetypes="sscccccszcccscs" /><path
         style="fill:none;stroke:#000000;stroke-width:1.55492;stroke-linecap:round;stroke-linejoin:miter;stroke-dasharray:none;stroke-opacity:1"
         d="m 228.85371,145.92103 c -9.88425,13.88108 5.07779,43.17748 5.07779,43.17748"
         id="path531"
         sodipodi:nodetypes="cc" /><path
         style="fill:none;stroke:#000000;stroke-width:1.55492;stroke-linecap:round;stroke-linejoin:miter;stroke-dasharray:none;stroke-opacity:1"
         d="m 204.49096,193.52878 c 0,0 -7.65132,-18.66145 2.8828,-41.42304"
         id="path533"
         sodipodi:nodetypes="cc" /><path
         style="fill:none;stroke:#000000;stroke-width:1.55492;stroke-linecap:butt;stroke-linejoin:miter;stroke-dasharray:none;stroke-opacity:1"
         d="m 225.6329,155.65111 c 3.95701,8.1554 8.57351,-0.22042 8.57351,-0.22042 0,0 5.05617,7.05332 6.59501,0.66126"
         id="path4194"
         sodipodi:nodetypes="ccc" /><path
         style="fill:none;stroke:#000000;stroke-width:1.55492;stroke-linecap:round;stroke-linejoin:miter;stroke-dasharray:none;stroke-opacity:1"
         d="m 236.25159,184.28915 c -6.77771,-11.94168 -4.51847,-18.07389 -4.51847,-18.07389"
         id="path4933" /><path
         style="fill:none;stroke:#000000;stroke-width:1.55492;stroke-linecap:round;stroke-linejoin:miter;stroke-dasharray:none;stroke-opacity:1"
         d="m 238.51083,176.5432 c -2.90474,-7.42321 -1.61374,-7.42321 -1.61374,-7.42321"
         id="path4935" /><path
         style="fill:none;stroke:#000000;stroke-width:1.55492;stroke-linecap:round;stroke-linejoin:miter;stroke-dasharray:none;stroke-opacity:1"
         d="m 204.94503,157.82381 c -7.42321,9.03695 -5.80947,-0.32275 -5.80947,-0.32275 0,0 -1.29099,3.22748 -2.90473,1.29099"
         id="path4937" /><path
         style="fill:none;stroke:#000000;stroke-width:1.55492;stroke-linecap:round;stroke-linejoin:miter;stroke-dasharray:none;stroke-opacity:1"
         d="m 197.84457,179.12518 c 0,-8.0687 0.6455,-12.26442 0.6455,-12.26442"
         id="path4939" /><path
         style="display:inline;fill:#04061f;fill-opacity:1;stroke:#000000;stroke-width:1.55492;stroke-linecap:butt;stroke-linejoin:round;stroke-dasharray:none;stroke-opacity:1"
         d="m 230.07272,188.85757 -0.84331,22.52727 c 0,0 12.49098,2.3576 13.30912,3.56663 0.81804,1.20909 -5.38546,3.39406 -5.38546,3.39406 0,0 -8.49456,-0.84127 -11.05214,-2.51347 -2.55758,-1.6722 -9.00176,-3.63017 -8.34968,-5.51204 0.65203,-1.88185 2.85669,-1.99368 7.60978,-0.0292 l 0.25914,-22.77876 z"
         id="path24688-6" /><path
         style="fill:#fff9d9;fill-opacity:1;stroke:none;stroke-width:1.55492;stroke-linecap:butt;stroke-linejoin:miter;stroke-dasharray:none;stroke-opacity:1"
         d="m 220.68315,185.77125 c 2.19672,7.39704 6.23119,0.64266 6.23119,0.64266 0,0 3.08392,6.55604 4.72489,1.20878"
         id="path4194-8"
         sodipodi:nodetypes="ccc" /><path
         style="display:inline;fill:#04061f;fill-opacity:1;stroke:#000000;stroke-width:1.55492;stroke-linecap:butt;stroke-linejoin:round;stroke-dasharray:none;stroke-opacity:1"
         d="m 209.91846,189.98813 -0.84331,22.52727 c 0,0 12.49098,2.3576 13.30912,3.56663 0.81804,1.20909 -5.38546,3.39406 -5.38546,3.39406 0,0 -8.49456,-0.84127 -11.05214,-2.51347 -2.55758,-1.6722 -9.00176,-3.63017 -8.34968,-5.51204 0.65203,-1.88185 2.85669,-1.99368 7.60978,-0.0292 l 0.25914,-22.77876 z"
         id="path5923" /><path
         style="fill:none;stroke:#e6e6e6;stroke-width:3.10985;stroke-linecap:round;stroke-linejoin:miter;stroke-dasharray:none;stroke-opacity:1"
         d="M 240.50625,85.724999 241.3,97.366665"
         id="path5925" /><path
         style="fill:#fff9d9;fill-opacity:1;stroke:none;stroke-width:1.55492;stroke-linecap:butt;stroke-linejoin:miter;stroke-dasharray:none;stroke-opacity:1"
         d="m 204.3261,187.56529 c 1.37427,6.74368 5.89797,1.09275 5.89797,1.09275 0,0 2.3057,6.07238 4.40128,1.46837"
         id="path6116"
         sodipodi:nodetypes="ccc" /></g><g
       id="g3004"
       transform="translate(-42.333335,-26.458334)"><path
         style="fill:#e6e6e6;fill-opacity:1;stroke:#000000;stroke-width:1.05833;stroke-linecap:butt;stroke-linejoin:miter;stroke-dasharray:none;stroke-opacity:1"
         d="m 277.97015,98.159697 4.1332,0.398517 0.0597,3.527066 -4.2693,-0.43572"
         id="path441" /><path
         style="fill:#e6e6e6;fill-opacity:1;stroke:#000000;stroke-width:1.05833;stroke-linecap:butt;stroke-linejoin:miter;stroke-dasharray:none;stroke-opacity:1"
         d="m 276.9763,104.47062 2.17774,0.59535 -0.8186,2.99439 -3.26661,-0.89302 z"
         id="path443" /><path
         id="path376"
         style="fill:#999999;fill-opacity:1;stroke:#04061f;stroke-width:1.05833;stroke-linecap:round;stroke-linejoin:round;stroke-dasharray:none;stroke-opacity:1"
         d="m 276.18746,93.512882 c -3.80522,-1.011205 -6.91563,4.987085 -6.91563,4.987085 -1.56323,4.058473 0.1167,8.796833 3.30477,9.696863 1.91684,0.52415 4.36206,-2.31118 5.46152,-6.33284 1.0994,-4.021678 0.43668,-7.706639 -1.48022,-8.230553 -0.12411,-0.04764 -0.2477,-0.08794 -0.37044,-0.120555 z"
         sodipodi:nodetypes="cccccc" /></g><path
       style="fill:none;stroke:#999999;stroke-width:2.11667;stroke-linecap:square;stroke-linejoin:miter;stroke-dasharray:none;stroke-opacity:1"
       d="m 217.80733,74.339555 2.94336,-0.49887"
       id="path2736"
       sodipodi:nodetypes="cc" /><g
       id="g2874"
       transform="translate(-42.333335,-26.458334)"><path
         style="fill:none;stroke:#fff9d9;stroke-width:1.05833;stroke-linecap:butt;stroke-linejoin:miter;stroke-dasharray:none;stroke-opacity:1"
         d="m 280.14556,92.616353 -0.0998,-2.294822 3.49212,0.897974 -0.89797,-4.290321 4.09077,0.997749"
         id="path2859" /><path
         style="fill:none;stroke:#fff9d9;stroke-width:1.05833;stroke-linecap:butt;stroke-linejoin:miter;stroke-dasharray:none;stroke-opacity:1"
         d="m 277.35187,111.17448 -1.09753,5.1883 4.68942,-2.09527 -1.29707,6.88446 6.28582,-3.29257"
         id="path2861" /><path
         style="fill:none;stroke:#fff9d9;stroke-width:1.05833;stroke-linecap:butt;stroke-linejoin:miter;stroke-dasharray:none;stroke-opacity:1"
         d="m 280.74421,103.99069 0.69843,2.49437 3.29257,-2.49437 1.49662,4.29032"
         id="path2863" /><path
         style="fill:none;stroke:#fff9d9;stroke-width:1.05833;stroke-linecap:butt;stroke-linejoin:miter;stroke-dasharray:none;stroke-opacity:1"
         d="m 271.6647,83.836162 0.3991,4.489871"
         id="path2865" /><path
         style="fill:none;stroke:#fff9d9;stroke-width:1.05833;stroke-linecap:butt;stroke-linejoin:miter;stroke-dasharray:none;stroke-opacity:1"
         d="m 272.16357,89.423557 0.0998,1.197298"
         id="path2867" /></g><g
       id="g3027"
       transform="rotate(-10.791934,159.22588,380.02728)"><path
         id="path3010"
         style="fill:#999999;fill-opacity:1;stroke:#04061f;stroke-width:1.05833;stroke-linecap:round;stroke-linejoin:round;stroke-dasharray:none;stroke-opacity:1"
         d="m 305.16974,157.97993 c 2.98257,2.57031 -0.21315,8.52359 -0.21315,8.52359 -2.46777,3.5812 -7.32737,4.86903 -9.86982,2.74541 -1.51463,-1.28643 -0.55436,-4.90529 2.1448,-8.08288 2.69921,-3.17755 6.11509,-4.71047 7.62956,-3.42386 0.10938,0.0756 0.21241,0.15483 0.30861,0.23774 z"
         sodipodi:nodetypes="cccccc" /><path
         style="fill:none;stroke:#333333;stroke-width:1.05833;stroke-linecap:round;stroke-linejoin:miter;stroke-dasharray:none;stroke-opacity:1"
         d="m 303.42154,161.60027 -1.02315,3.58099"
         id="path3014" /><path
         style="fill:none;stroke:#333333;stroke-width:1.05833;stroke-linecap:round;stroke-linejoin:miter;stroke-dasharray:none;stroke-opacity:1"
         d="m 298.67124,164.81586 -2.04628,2.70401"
         id="path3016" /><path
         style="fill:none;stroke:#333333;stroke-width:1.05833;stroke-linecap:round;stroke-linejoin:miter;stroke-dasharray:none;stroke-opacity:1"
         d="m 298.67124,162.11184 2.99634,-1.9732"
         id="path3018" /></g></g></svg>
